# Reusable smooth slope; one block only.
mtllib school_slope.mtl
usemtl wall
v 0 0 0
v 0 0.625 0
v 0 0 0.625
v 1 0 0
v 1 0 0.625
v 1 0.625 0
v 0 0 0
v 1 0 0
v 1 0.625 0
v 0 0.625 0
v 0 0.625 0
v 1 0.625 0
v 1 0 0.625
v 0 0 0.625
v 0 0 0.625
v 1 0 0.625
v 1 0 0
v 0 0 0
vt 0 0
vt 0 0.625
vt 0.625 0
vt 0 0
vt 0.625 0
vt 0 0.625
vt 0 0
vt 1 0
vt 1 0
vt 0 0
vt 0 0
vt 1 0
vt 1 0.625
vt 0 0.625
vt 0 0.625
vt 1 0.625
vt 1 0
vt 0 0
f 3/3 2/2 1/1
f 6/6 5/5 4/4
f 10/10 9/9 8/8 7/7
f 14/14 13/13 12/12 11/11
f 18/18 17/17 16/16 15/15
