# Reusable smooth slope; one block only.
mtllib school_slope.mtl
usemtl wall
v 0 1 0
v 0 0.375 0
v 0 1 0.625
v 1 1 0
v 1 1 0.625
v 1 0.375 0
v 0 1 0
v 1 1 0
v 1 0.375 0
v 0 0.375 0
v 0 0.375 0
v 1 0.375 0
v 1 1 0.625
v 0 1 0.625
v 0 1 0.625
v 1 1 0.625
v 1 1 0
v 0 1 0
vt 0 0
vt 0 0.625
vt 0.625 0
vt 0 0
vt 0.625 0
vt 0 0.625
vt 0 0
vt 1 0
vt 1 0
vt 0 0
vt 0 0
vt 1 0
vt 1 0.625
vt 0 0.625
vt 0 0.625
vt 1 0.625
vt 1 0
vt 0 0
f 1/1 2/2 3/3
f 4/4 5/5 6/6
f 7/7 8/8 9/9 10/10
f 11/11 12/12 13/13 14/14
f 15/15 16/16 17/17 18/18
