# Rebuilt flight: level end transitions and a constant-thickness diagonal band.
mtllib school_railing_slopes.mtl
v 0 0.55 1
v 0 0.95 0.5
v 0 0.2 0.5
v 0 -0.2 1
v 1 -0.2 1
v 1 0.2 0.5
v 1 0.95 0.5
v 1 0.55 1
v 0 0.2 0.5
v 1 0.2 0.5
v 1 -0.2 1
v 0 -0.2 1
v 0 0.55 1
v 1 0.55 1
v 1 0.95 0.5
v 0 0.95 0.5
v 0 -0.2 1
v 1 -0.2 1
v 1 0.55 1
v 0 0.55 1
v 0.4375 1.05 1
v 0.4375 1.45 0.5
v 0.4375 1.325 0.5
v 0.4375 0.925 1
v 0.5625 0.925 1
v 0.5625 1.325 0.5
v 0.5625 1.45 0.5
v 0.5625 1.05 1
v 0.4375 1.325 0.5
v 0.5625 1.325 0.5
v 0.5625 0.925 1
v 0.4375 0.925 1
v 0.4375 1.05 1
v 0.5625 1.05 1
v 0.5625 1.45 0.5
v 0.4375 1.45 0.5
v 0.4375 0.925 1
v 0.5625 0.925 1
v 0.5625 1.05 1
v 0.4375 1.05 1
v 0 0.95 0.5
v 0 1.35 0
v 0 0.6 0
v 0 0.2 0.5
v 1 0.2 0.5
v 1 0.6 0
v 1 1.35 0
v 1 0.95 0.5
v 0 0.6 0
v 1 0.6 0
v 1 0.2 0.5
v 0 0.2 0.5
v 0 1.35 0
v 1 1.35 0
v 1 0.6 0
v 0 0.6 0
v 0 0.95 0.5
v 1 0.95 0.5
v 1 1.35 0
v 0 1.35 0
v 0.4375 1.45 0.5
v 0.4375 1.85 0
v 0.4375 1.725 0
v 0.4375 1.325 0.5
v 0.5625 1.325 0.5
v 0.5625 1.725 0
v 0.5625 1.85 0
v 0.5625 1.45 0.5
v 0.4375 1.725 0
v 0.5625 1.725 0
v 0.5625 1.325 0.5
v 0.4375 1.325 0.5
v 0.4375 1.85 0
v 0.5625 1.85 0
v 0.5625 1.725 0
v 0.4375 1.725 0
v 0.4375 1.45 0.5
v 0.5625 1.45 0.5
v 0.5625 1.85 0
v 0.4375 1.85 0
v 0.4375 1.275 0.5625
v 0.4375 1.325 0.5
v 0.4375 0.95 0.5
v 0.4375 0.9 0.5625
v 0.5625 0.9 0.5625
v 0.5625 0.95 0.5
v 0.5625 1.325 0.5
v 0.5625 1.275 0.5625
v 0.4375 0.95 0.5
v 0.5625 0.95 0.5
v 0.5625 0.9 0.5625
v 0.4375 0.9 0.5625
v 0.4375 1.275 0.5625
v 0.5625 1.275 0.5625
v 0.5625 1.325 0.5
v 0.4375 1.325 0.5
v 0.4375 0.9 0.5625
v 0.5625 0.9 0.5625
v 0.5625 1.275 0.5625
v 0.4375 1.275 0.5625
v 0.4375 1.325 0.5
v 0.4375 1.375 0.4375
v 0.4375 1 0.4375
v 0.4375 0.95 0.5
v 0.5625 0.95 0.5
v 0.5625 1 0.4375
v 0.5625 1.375 0.4375
v 0.5625 1.325 0.5
v 0.4375 1 0.4375
v 0.5625 1 0.4375
v 0.5625 0.95 0.5
v 0.4375 0.95 0.5
v 0.4375 1.375 0.4375
v 0.5625 1.375 0.4375
v 0.5625 1 0.4375
v 0.4375 1 0.4375
v 0.4375 1.325 0.5
v 0.5625 1.325 0.5
v 0.5625 1.375 0.4375
v 0.4375 1.375 0.4375
vt 0 1
vt 0.5 1
vt 0.5 0
vt 0 0
vt 0 0
vt 0.5 0
vt 0.5 1
vt 0 1
vt 0 0.5
vt 1 0.5
vt 1 0
vt 0 0
vt 0 0
vt 1 0
vt 1 0.5
vt 0 0.5
vt 0 0
vt 1 0
vt 1 0
vt 0 0
vt 0 1
vt 0.5 1
vt 0.5 0
vt 0 0
vt 0 0
vt 0.5 0
vt 0.5 1
vt 0 1
vt 0.4375 0.5
vt 0.5625 0.5
vt 0.5625 0
vt 0.4375 0
vt 0.4375 0
vt 0.5625 0
vt 0.5625 0.5
vt 0.4375 0.5
vt 0.4375 0
vt 0.5625 0
vt 0.5625 0
vt 0.4375 0
vt 0.5 1
vt 1 1
vt 1 0
vt 0.5 0
vt 0.5 0
vt 1 0
vt 1 1
vt 0.5 1
vt 0 1
vt 1 1
vt 1 0.5
vt 0 0.5
vt 0 1
vt 1 1
vt 1 1
vt 0 1
vt 0 0.5
vt 1 0.5
vt 1 1
vt 0 1
vt 0.5 1
vt 1 1
vt 1 0
vt 0.5 0
vt 0.5 0
vt 1 0
vt 1 1
vt 0.5 1
vt 0.4375 1
vt 0.5625 1
vt 0.5625 0.5
vt 0.4375 0.5
vt 0.4375 1
vt 0.5625 1
vt 0.5625 1
vt 0.4375 1
vt 0.4375 0.5
vt 0.5625 0.5
vt 0.5625 1
vt 0.4375 1
vt 0.4375 1
vt 0.5 1
vt 0.5 0
vt 0.4375 0
vt 0.4375 0
vt 0.5 0
vt 0.5 1
vt 0.4375 1
vt 0.4375 0.5
vt 0.5625 0.5
vt 0.5625 0.4375
vt 0.4375 0.4375
vt 0.4375 0.4375
vt 0.5625 0.4375
vt 0.5625 0.5
vt 0.4375 0.5
vt 0.4375 0.4375
vt 0.5625 0.4375
vt 0.5625 0.4375
vt 0.4375 0.4375
vt 0.5 1
vt 0.5625 1
vt 0.5625 0
vt 0.5 0
vt 0.5 0
vt 0.5625 0
vt 0.5625 1
vt 0.5 1
vt 0.4375 0.5625
vt 0.5625 0.5625
vt 0.5625 0.5
vt 0.4375 0.5
vt 0.4375 0.5625
vt 0.5625 0.5625
vt 0.5625 0.5625
vt 0.4375 0.5625
vt 0.4375 0.5
vt 0.5625 0.5
vt 0.5625 0.5625
vt 0.4375 0.5625
usemtl wall
f 1/1 2/2 3/3 4/4
usemtl wall
f 5/5 6/6 7/7 8/8
usemtl wall
f 9/9 10/10 11/11 12/12
usemtl wall
f 13/13 14/14 15/15 16/16
usemtl wall
f 17/17 18/18 19/19 20/20
usemtl metal
f 21/21 22/22 23/23 24/24
usemtl metal
f 25/25 26/26 27/27 28/28
usemtl metal
f 29/29 30/30 31/31 32/32
usemtl metal
f 33/33 34/34 35/35 36/36
usemtl metal
f 37/37 38/38 39/39 40/40
usemtl wall
f 41/41 42/42 43/43 44/44
usemtl wall
f 45/45 46/46 47/47 48/48
usemtl wall
f 49/49 50/50 51/51 52/52
usemtl wall
f 53/53 54/54 55/55 56/56
usemtl wall
f 57/57 58/58 59/59 60/60
usemtl metal
f 61/61 62/62 63/63 64/64
usemtl metal
f 65/65 66/66 67/67 68/68
usemtl metal
f 69/69 70/70 71/71 72/72
usemtl metal
f 73/73 74/74 75/75 76/76
usemtl metal
f 77/77 78/78 79/79 80/80
usemtl metal
f 81/81 82/82 83/83 84/84
usemtl metal
f 85/85 86/86 87/87 88/88
usemtl metal
f 89/89 90/90 91/91 92/92
usemtl metal
f 93/93 94/94 95/95 96/96
usemtl metal
f 97/97 98/98 99/99 100/100
usemtl metal
f 101/101 102/102 103/103 104/104
usemtl metal
f 105/105 106/106 107/107 108/108
usemtl metal
f 109/109 110/110 111/111 112/112
usemtl metal
f 113/113 114/114 115/115 116/116
usemtl metal
f 117/117 118/118 119/119 120/120
