# Reusable smooth slope; one block only.
mtllib school_slope.mtl
usemtl wall
v 0 0 1
v 0 0 0
v 0 1 0
v 1 0 1
v 1 1 0
v 1 0 0
v 0 0 1
v 0 1 0
v 0 1 0.625
v 1 0 1
v 1 1 0.625
v 1 1 0
v 0 0 1
v 0 1 0.625
v 0 0.625 1
v 1 0 1
v 1 0.625 1
v 1 1 0.625
v 0 0 1
v 1 0 1
v 1 0 0
v 0 0 0
v 0 0 0
v 1 0 0
v 1 1 0
v 0 1 0
v 0 1 0
v 1 1 0
v 1 1 0.625
v 0 1 0.625
v 0 1 0.625
v 1 1 0.625
v 1 0.625 1
v 0 0.625 1
v 0 0.625 1
v 1 0.625 1
v 1 0 1
v 0 0 1
vt 1 0
vt 0 0
vt 0 1
vt 1 0
vt 0 1
vt 0 0
vt 1 0
vt 0 1
vt 0.625 1
vt 1 0
vt 0.625 1
vt 0 1
vt 1 0
vt 0.625 1
vt 1 0.625
vt 1 0
vt 1 0.625
vt 0.625 1
vt 0 1
vt 1 1
vt 1 0
vt 0 0
vt 0 0
vt 1 0
vt 1 0
vt 0 0
vt 0 0
vt 1 0
vt 1 0.625
vt 0 0.625
vt 0 0.625
vt 1 0.625
vt 1 1
vt 0 1
vt 0 1
vt 1 1
vt 1 1
vt 0 1
f 3/3 2/2 1/1
f 6/6 5/5 4/4
f 9/9 8/8 7/7
f 12/12 11/11 10/10
f 15/15 14/14 13/13
f 18/18 17/17 16/16
f 22/22 21/21 20/20 19/19
f 26/26 25/25 24/24 23/23
f 30/30 29/29 28/28 27/27
f 34/34 33/33 32/32 31/31
f 38/38 37/37 36/36 35/35
