mtllib school_railing_slopes.mtl
v 0 0.464285714286 1
v 0 1.17857142857 0
v 0 0 0
v 0 0 1
v 1 0 1
v 1 0 0
v 1 1.17857142857 0
v 1 0.464285714286 1
v 0 0 0
v 1 0 0
v 1 0 1
v 0 0 1
v 0 1.17857142857 0
v 1 1.17857142857 0
v 1 0 0
v 0 0 0
v 0 0.464285714286 1
v 1 0.464285714286 1
v 1 1.17857142857 0
v 0 1.17857142857 0
v 0 0 1
v 1 0 1
v 1 0.464285714286 1
v 0 0.464285714286 1
v 0.4375 0.964285714286 1
v 0.4375 1.67857142857 0
v 0.4375 1.55357142857 0
v 0.4375 0.839285714286 1
v 0.5625 0.839285714286 1
v 0.5625 1.55357142857 0
v 0.5625 1.67857142857 0
v 0.5625 0.964285714286 1
v 0.4375 1.55357142857 0
v 0.5625 1.55357142857 0
v 0.5625 0.839285714286 1
v 0.4375 0.839285714286 1
v 0.4375 1.67857142857 0
v 0.5625 1.67857142857 0
v 0.5625 1.55357142857 0
v 0.4375 1.55357142857 0
v 0.4375 0.964285714286 1
v 0.5625 0.964285714286 1
v 0.5625 1.67857142857 0
v 0.4375 1.67857142857 0
v 0.4375 0.839285714286 1
v 0.5625 0.839285714286 1
v 0.5625 0.964285714286 1
v 0.4375 0.964285714286 1
vt 1 0.393939393939
vt 0 1
vt 0 0
vt 1 0
vt 1 0
vt 0 0
vt 0 1
vt 1 0.393939393939
vt 0 0
vt 1 0
vt 1 1
vt 0 1
vt 0 0
vt 1 0
vt 1 0
vt 0 0
vt 0 1
vt 1 1
vt 1 0
vt 0 0
vt 0 1
vt 1 1
vt 1 1
vt 0 1
vt 1 0.148936170213
vt 0 1
vt 0 0.851063829787
vt 1 0
vt 1 0
vt 0 0.851063829787
vt 0 1
vt 1 0.148936170213
vt 0.4375 0
vt 0.5625 0
vt 0.5625 1
vt 0.4375 1
vt 0.4375 0
vt 0.5625 0
vt 0.5625 0
vt 0.4375 0
vt 0.4375 1
vt 0.5625 1
vt 0.5625 0
vt 0.4375 0
vt 0.4375 1
vt 0.5625 1
vt 0.5625 1
vt 0.4375 1
usemtl wall
f 1/1 2/2 3/3 4/4
usemtl wall
f 5/5 6/6 7/7 8/8
usemtl wall
f 9/9 10/10 11/11 12/12
usemtl wall
f 13/13 14/14 15/15 16/16
usemtl wall
f 17/17 18/18 19/19 20/20
usemtl wall
f 21/21 22/22 23/23 24/24
usemtl metal
f 25/25 26/26 27/27 28/28
usemtl metal
f 29/29 30/30 31/31 32/32
usemtl metal
f 33/33 34/34 35/35 36/36
usemtl metal
f 37/37 38/38 39/39 40/40
usemtl metal
f 41/41 42/42 43/43 44/44
usemtl metal
f 45/45 46/46 47/47 48/48
