# Reusable smooth slope; one block only.
mtllib school_slope.mtl
usemtl wall
v 0 1 1
v 0 1 0
v 0 0 0
v 1 1 1
v 1 0 0
v 1 1 0
v 0 1 1
v 0 0 0
v 0 0 0.625
v 1 1 1
v 1 0 0.625
v 1 0 0
v 0 1 1
v 0 0 0.625
v 0 0.375 1
v 1 1 1
v 1 0.375 1
v 1 0 0.625
v 0 1 1
v 1 1 1
v 1 1 0
v 0 1 0
v 0 1 0
v 1 1 0
v 1 0 0
v 0 0 0
v 0 0 0
v 1 0 0
v 1 0 0.625
v 0 0 0.625
v 0 0 0.625
v 1 0 0.625
v 1 0.375 1
v 0 0.375 1
v 0 0.375 1
v 1 0.375 1
v 1 1 1
v 0 1 1
vt 1 0
vt 0 0
vt 0 1
vt 1 0
vt 0 1
vt 0 0
vt 1 0
vt 0 1
vt 0.625 1
vt 1 0
vt 0.625 1
vt 0 1
vt 1 0
vt 0.625 1
vt 1 0.625
vt 1 0
vt 1 0.625
vt 0.625 1
vt 0 1
vt 1 1
vt 1 0
vt 0 0
vt 0 0
vt 1 0
vt 1 0
vt 0 0
vt 0 0
vt 1 0
vt 1 0.625
vt 0 0.625
vt 0 0.625
vt 1 0.625
vt 1 1
vt 0 1
vt 0 1
vt 1 1
vt 1 1
vt 0 1
f 1/1 2/2 3/3
f 4/4 5/5 6/6
f 7/7 8/8 9/9
f 10/10 11/11 12/12
f 13/13 14/14 15/15
f 16/16 17/17 18/18
f 19/19 20/20 21/21 22/22
f 23/23 24/24 25/25 26/26
f 27/27 28/28 29/29 30/30
f 31/31 32/32 33/33 34/34
f 35/35 36/36 37/37 38/38
