# Rebuilt flight: level end transitions and a constant-thickness diagonal band.
mtllib school_railing_slopes.mtl
v 0 0.75 1
v 0 1.15 0.5
v 0 0.4 0.5
v 0 0 1
v 1 0 1
v 1 0.4 0.5
v 1 1.15 0.5
v 1 0.75 1
v 0 0.4 0.5
v 1 0.4 0.5
v 1 0 1
v 0 0 1
v 0 0.75 1
v 1 0.75 1
v 1 1.15 0.5
v 0 1.15 0.5
v 0 0 1
v 1 0 1
v 1 0.75 1
v 0 0.75 1
v 0.4375 1.25 1
v 0.4375 1.65 0.5
v 0.4375 1.525 0.5
v 0.4375 1.125 1
v 0.5625 1.125 1
v 0.5625 1.525 0.5
v 0.5625 1.65 0.5
v 0.5625 1.25 1
v 0.4375 1.525 0.5
v 0.5625 1.525 0.5
v 0.5625 1.125 1
v 0.4375 1.125 1
v 0.4375 1.25 1
v 0.5625 1.25 1
v 0.5625 1.65 0.5
v 0.4375 1.65 0.5
v 0.4375 1.125 1
v 0.5625 1.125 1
v 0.5625 1.25 1
v 0.4375 1.25 1
v 0 1.15 0.5
v 0 1.55 0
v 0 0.8 0
v 0 0.4 0.5
v 1 0.4 0.5
v 1 0.8 0
v 1 1.55 0
v 1 1.15 0.5
v 0 0.8 0
v 1 0.8 0
v 1 0.4 0.5
v 0 0.4 0.5
v 0 1.55 0
v 1 1.55 0
v 1 0.8 0
v 0 0.8 0
v 0 1.15 0.5
v 1 1.15 0.5
v 1 1.55 0
v 0 1.55 0
v 0.4375 1.65 0.5
v 0.4375 2.05 0
v 0.4375 1.925 0
v 0.4375 1.525 0.5
v 0.5625 1.525 0.5
v 0.5625 1.925 0
v 0.5625 2.05 0
v 0.5625 1.65 0.5
v 0.4375 1.925 0
v 0.5625 1.925 0
v 0.5625 1.525 0.5
v 0.4375 1.525 0.5
v 0.4375 2.05 0
v 0.5625 2.05 0
v 0.5625 1.925 0
v 0.4375 1.925 0
v 0.4375 1.65 0.5
v 0.5625 1.65 0.5
v 0.5625 2.05 0
v 0.4375 2.05 0
vt 0 1
vt 0.5 1
vt 0.5 0
vt 0 0
vt 0 0
vt 0.5 0
vt 0.5 1
vt 0 1
vt 0 0.5
vt 1 0.5
vt 1 0
vt 0 0
vt 0 0
vt 1 0
vt 1 0.5
vt 0 0.5
vt 0 0
vt 1 0
vt 1 0
vt 0 0
vt 0 1
vt 0.5 1
vt 0.5 0
vt 0 0
vt 0 0
vt 0.5 0
vt 0.5 1
vt 0 1
vt 0.4375 0.5
vt 0.5625 0.5
vt 0.5625 0
vt 0.4375 0
vt 0.4375 0
vt 0.5625 0
vt 0.5625 0.5
vt 0.4375 0.5
vt 0.4375 0
vt 0.5625 0
vt 0.5625 0
vt 0.4375 0
vt 0.5 1
vt 1 1
vt 1 0
vt 0.5 0
vt 0.5 0
vt 1 0
vt 1 1
vt 0.5 1
vt 0 1
vt 1 1
vt 1 0.5
vt 0 0.5
vt 0 1
vt 1 1
vt 1 1
vt 0 1
vt 0 0.5
vt 1 0.5
vt 1 1
vt 0 1
vt 0.5 1
vt 1 1
vt 1 0
vt 0.5 0
vt 0.5 0
vt 1 0
vt 1 1
vt 0.5 1
vt 0.4375 1
vt 0.5625 1
vt 0.5625 0.5
vt 0.4375 0.5
vt 0.4375 1
vt 0.5625 1
vt 0.5625 1
vt 0.4375 1
vt 0.4375 0.5
vt 0.5625 0.5
vt 0.5625 1
vt 0.4375 1
usemtl wall
f 1/1 2/2 3/3 4/4
usemtl wall
f 5/5 6/6 7/7 8/8
usemtl wall
f 9/9 10/10 11/11 12/12
usemtl wall
f 13/13 14/14 15/15 16/16
usemtl wall
f 17/17 18/18 19/19 20/20
usemtl metal
f 21/21 22/22 23/23 24/24
usemtl metal
f 25/25 26/26 27/27 28/28
usemtl metal
f 29/29 30/30 31/31 32/32
usemtl metal
f 33/33 34/34 35/35 36/36
usemtl metal
f 37/37 38/38 39/39 40/40
usemtl wall
f 41/41 42/42 43/43 44/44
usemtl wall
f 45/45 46/46 47/47 48/48
usemtl wall
f 49/49 50/50 51/51 52/52
usemtl wall
f 53/53 54/54 55/55 56/56
usemtl wall
f 57/57 58/58 59/59 60/60
usemtl metal
f 61/61 62/62 63/63 64/64
usemtl metal
f 65/65 66/66 67/67 68/68
usemtl metal
f 69/69 70/70 71/71 72/72
usemtl metal
f 73/73 74/74 75/75 76/76
usemtl metal
f 77/77 78/78 79/79 80/80
